<svg width="18" height="16" viewBox="0 0 18 16" fill="none" xmlns="http://www.w3.org/2000/svg">
<path d="M13 0C13.2549 0.000282707 13.5 0.0978789 13.6854 0.272848C13.8707 0.447817 13.9822 0.686953 13.9972 0.941395C14.0121 1.19584 13.9293 1.44638 13.7657 1.64183C13.6021 1.83729 13.3701 1.9629 13.117 1.993L13 2H2.5C2.37505 1.99977 2.25455 2.04633 2.16222 2.13051C2.06988 2.21469 2.01241 2.33039 2.00112 2.45482C1.98984 2.57926 2.02554 2.70341 2.10122 2.80283C2.1769 2.90225 2.28705 2.96974 2.41 2.992L2.5 3H16C16.5046 2.99984 16.9906 3.19041 17.3605 3.5335C17.7305 3.87659 17.9572 4.34685 17.995 4.85L18 5V14C18.0002 14.5046 17.8096 14.9906 17.4665 15.3605C17.1234 15.7305 16.6532 15.9572 16.15 15.995L16 16H2C1.49542 16.0002 1.00943 15.8096 0.639452 15.4665C0.269471 15.1234 0.0428433 14.6532 0.00500014 14.15L2.96809e-08 14V2.5C-9.77163e-05 1.86528 0.241233 1.25429 0.67504 0.790955C1.10885 0.32762 1.70265 0.0466376 2.336 0.00500011L2.5 0H13ZM2 4.95V14H16V5H2.5C2.386 5 2.273 4.992 2.163 4.978L2 4.95ZM12.5 8C12.8978 8 13.2794 8.15804 13.5607 8.43934C13.842 8.72064 14 9.10218 14 9.5C14 9.89782 13.842 10.2794 13.5607 10.5607C13.2794 10.842 12.8978 11 12.5 11C12.1022 11 11.7206 10.842 11.4393 10.5607C11.158 10.2794 11 9.89782 11 9.5C11 9.10218 11.158 8.72064 11.4393 8.43934C11.7206 8.15804 12.1022 8 12.5 8Z" fill="#D09BF1"/>
</svg>
