<svg width="14" height="14" viewBox="0 0 14 14" fill="none" xmlns="http://www.w3.org/2000/svg">
<path d="M13.7949 12.7974C13.9263 12.9305 14 13.1102 14 13.2976C14 13.4849 13.9263 13.6646 13.7949 13.7977C13.6612 13.9275 13.4825 14 13.2965 14C13.1104 14 12.9317 13.9275 12.798 13.7977L7 7.97112L1.20201 13.7977C1.06829 13.9275 0.889555 14 0.703542 14C0.517529 14 0.338795 13.9275 0.205072 13.7977C0.073699 13.6646 0 13.4849 0 13.2976C0 13.1102 0.073699 12.9305 0.205072 12.7974L6.01181 6.97954L0.205072 1.1617C0.0935109 1.02531 0.0364986 0.852149 0.0451249 0.67591C0.0537511 0.499671 0.127399 0.332952 0.251743 0.208182C0.376088 0.0834121 0.542238 0.00951207 0.717876 0.000856336C0.893514 -0.0077994 1.06608 0.049408 1.20201 0.161351L7 5.98796L12.798 0.161351C12.9339 0.049408 13.1065 -0.0077994 13.2821 0.000856336C13.4578 0.00951207 13.6239 0.0834121 13.7483 0.208182C13.8726 0.332952 13.9462 0.499671 13.9549 0.67591C13.9635 0.852149 13.9065 1.02531 13.7949 1.1617L7.98819 6.97954L13.7949 12.7974Z" fill="white"/>
</svg>
