<svg width="15" height="14" viewBox="0 0 15 14" fill="none" xmlns="http://www.w3.org/2000/svg">
<path d="M7.575 11.6625L7.5 11.7375L7.4175 11.6625C3.855 8.43 1.5 6.2925 1.5 4.125C1.5 2.625 2.625 1.5 4.125 1.5C5.28 1.5 6.405 2.25 6.8025 3.27H8.1975C8.595 2.25 9.72 1.5 10.875 1.5C12.375 1.5 13.5 2.625 13.5 4.125C13.5 6.2925 11.145 8.43 7.575 11.6625ZM10.875 0C9.57 0 8.3175 0.6075 7.5 1.56C6.6825 0.6075 5.43 0 4.125 0C1.815 0 0 1.8075 0 4.125C0 6.9525 2.55 9.27 6.4125 12.7725L7.5 13.7625L8.5875 12.7725C12.45 9.27 15 6.9525 15 4.125C15 1.8075 13.185 0 10.875 0Z" fill="#D09BF1"/>
</svg>
